# xmcd
# 
# Track frame offsets:
#     150
#     53625
#     81900
#     117477
#     168650
#     196207
# 
# Disc length: 3203
# 
# Revision: 1
# Processed by: cddbd v1.5.2PL0 Copyright (c) Steve Scherf et al.
# Submitted via: BonkEnc v1.0.8
# 
DISCID=4c0c8106
DTITLE=Gary Peacock - Voices
DYEAR=1971
DGENRE=Contemporary Jazz
TTITLE0=Ishi
TTITLE1=Bonsho
TTITLE2=Hollows
TTITLE3=Voice from the Past
TTITLE4=Requiem
TTITLE5=Ae. Ay.
EXTD=
EXTT0=
EXTT1=
EXTT2=
EXTT3=
EXTT4=
EXTT5=
PLAYORDER=
